<mxfile host="65bd71144e">
    <diagram id="pGdkqJeKjEHNAApDDCZA" name="Page-1">
        <mxGraphModel dx="1374" dy="860" grid="1" gridSize="10" guides="1" tooltips="1" connect="1" arrows="1" fold="1" page="1" pageScale="1" pageWidth="3300" pageHeight="2339" math="0" shadow="0">
            <root>
                <mxCell id="0"/>
                <mxCell id="1" parent="0"/>
                <mxCell id="3" value="" style="rounded=0;whiteSpace=wrap;html=1;fillColor=none;dashed=1;strokeWidth=2;perimeterSpacing=0;" parent="1" vertex="1">
                    <mxGeometry x="1460" y="760" width="1030" height="680" as="geometry"/>
                </mxCell>
                <mxCell id="4" value="Links" style="text;html=1;align=center;verticalAlign=middle;resizable=0;points=[];autosize=1;strokeColor=none;fillColor=none;fontSize=30;" parent="1" vertex="1">
                    <mxGeometry x="1500" y="775" width="90" height="40" as="geometry"/>
                </mxCell>
                <mxCell id="32" style="edgeStyle=none;html=1;entryX=0;entryY=0.25;entryDx=0;entryDy=0;fontSize=20;exitX=1;exitY=0.25;exitDx=0;exitDy=0;" parent="1" source="29" target="30" edge="1">
                    <mxGeometry relative="1" as="geometry"/>
                </mxCell>
                <mxCell id="35" style="edgeStyle=none;html=1;entryX=1;entryY=0.75;entryDx=0;entryDy=0;fontSize=20;exitX=0;exitY=0.75;exitDx=0;exitDy=0;" parent="1" source="29" target="31" edge="1">
                    <mxGeometry relative="1" as="geometry"/>
                </mxCell>
                <mxCell id="29" value="Searching" style="rounded=1;whiteSpace=wrap;html=1;strokeWidth=2;fontSize=20;" parent="1" vertex="1">
                    <mxGeometry x="1920" y="1240" width="110" height="60" as="geometry"/>
                </mxCell>
                <mxCell id="33" style="edgeStyle=none;html=1;entryX=1;entryY=0.75;entryDx=0;entryDy=0;fontSize=20;exitX=0;exitY=0.75;exitDx=0;exitDy=0;" parent="1" source="30" target="29" edge="1">
                    <mxGeometry relative="1" as="geometry"/>
                </mxCell>
                <mxCell id="30" value="Connected" style="rounded=1;whiteSpace=wrap;html=1;strokeWidth=2;fontSize=20;" parent="1" vertex="1">
                    <mxGeometry x="2120" y="1240" width="110" height="60" as="geometry"/>
                </mxCell>
                <mxCell id="2" value="Idle" style="rounded=1;whiteSpace=wrap;html=1;align=center;verticalAlign=middle;strokeWidth=2;fontSize=20;" parent="1" vertex="1">
                    <mxGeometry x="1770" y="950" width="110" height="60" as="geometry"/>
                </mxCell>
                <mxCell id="5" value="Connected" style="rounded=1;whiteSpace=wrap;html=1;align=center;verticalAlign=middle;strokeWidth=2;fontSize=20;" parent="1" vertex="1">
                    <mxGeometry x="2075" y="950" width="110" height="60" as="geometry"/>
                </mxCell>
                <mxCell id="6" value="" style="ellipse;html=1;shape=startState;fillColor=#000000;strokeColor=#ff0000;rounded=1;dashed=1;fontSize=17;" parent="1" vertex="1">
                    <mxGeometry x="1810" y="880" width="30" height="30" as="geometry"/>
                </mxCell>
                <mxCell id="12" value="[Enters range&lt;br style=&quot;font-size: 16px;&quot;&gt;of station]" style="text;html=1;align=center;verticalAlign=middle;resizable=0;points=[];autosize=1;strokeColor=none;fillColor=none;fontSize=16;" parent="1" vertex="1">
                    <mxGeometry x="1920" y="920" width="110" height="40" as="geometry"/>
                </mxCell>
                <mxCell id="13" value="[Leaves range&lt;br style=&quot;font-size: 16px;&quot;&gt;of station]" style="text;html=1;align=center;verticalAlign=middle;resizable=0;points=[];autosize=1;strokeColor=none;fillColor=none;fontSize=16;" parent="1" vertex="1">
                    <mxGeometry x="1915" y="1000" width="120" height="40" as="geometry"/>
                </mxCell>
                <mxCell id="8" style="edgeStyle=none;html=1;entryX=0;entryY=0.25;entryDx=0;entryDy=0;fontSize=17;exitX=1;exitY=0.25;exitDx=0;exitDy=0;" parent="1" source="2" target="5" edge="1">
                    <mxGeometry relative="1" as="geometry"/>
                </mxCell>
                <mxCell id="9" style="edgeStyle=none;html=1;entryX=1;entryY=0.75;entryDx=0;entryDy=0;fontSize=17;exitX=0;exitY=0.75;exitDx=0;exitDy=0;" parent="1" source="5" target="2" edge="1">
                    <mxGeometry relative="1" as="geometry"/>
                </mxCell>
                <mxCell id="7" value="" style="edgeStyle=orthogonalEdgeStyle;html=1;verticalAlign=bottom;endArrow=open;endSize=8;strokeColor=#ff0000;fontSize=17;entryX=0.5;entryY=0;entryDx=0;entryDy=0;" parent="1" source="6" target="2" edge="1">
                    <mxGeometry relative="1" as="geometry">
                        <mxPoint x="3425" y="1710" as="targetPoint"/>
                    </mxGeometry>
                </mxCell>
                <mxCell id="28" value="GEO Relay" style="text;html=1;align=center;verticalAlign=middle;resizable=0;points=[];autosize=1;strokeColor=none;fillColor=none;fontSize=25;" parent="1" vertex="1">
                    <mxGeometry x="1905" y="1150" width="140" height="40" as="geometry"/>
                </mxCell>
                <mxCell id="34" style="edgeStyle=none;html=1;entryX=0;entryY=0.25;entryDx=0;entryDy=0;fontSize=20;exitX=1;exitY=0.25;exitDx=0;exitDy=0;" parent="1" source="31" target="29" edge="1">
                    <mxGeometry relative="1" as="geometry"/>
                </mxCell>
                <mxCell id="31" value="Idle" style="rounded=1;whiteSpace=wrap;html=1;strokeWidth=2;fontSize=20;" parent="1" vertex="1">
                    <mxGeometry x="1730" y="1240" width="110" height="60" as="geometry"/>
                </mxCell>
                <mxCell id="36" value="" style="ellipse;html=1;shape=startState;fillColor=#000000;strokeColor=#ff0000;rounded=1;dashed=1;fontSize=17;" parent="1" vertex="1">
                    <mxGeometry x="1770" y="1170" width="30" height="30" as="geometry"/>
                </mxCell>
                <mxCell id="37" value="" style="edgeStyle=orthogonalEdgeStyle;html=1;verticalAlign=bottom;endArrow=open;endSize=8;strokeColor=#ff0000;fontSize=17;entryX=0.5;entryY=0;entryDx=0;entryDy=0;" parent="1" source="36" target="31" edge="1">
                    <mxGeometry relative="1" as="geometry">
                        <mxPoint x="1785" y="1240" as="targetPoint"/>
                    </mxGeometry>
                </mxCell>
            </root>
        </mxGraphModel>
    </diagram>
</mxfile>